<?xml version="1.0" encoding="utf-8"?>
<svg version="1.1" baseProfile="tiny" id="Layer_1" xmlns="http://www.w3.org/2000/svg" xmlns:xlink="http://www.w3.org/1999/xlink"
	 x="0px" y="0px" viewBox="0 0 512 512" overflow="visible" xml:space="preserve">
<path fill="#EC2027" d="M273.1,87.8c-16-4.1-32.3-3.8-47.8-0.2c-14,3.2-27.7,9.2-40.3,17.1c-11.7,7.3-22.8,16.4-32.8,26.9
	c-9.5,10-18.4,21.4-26.2,34.2c-7.6,12.5-13.8,25.4-18.5,38.3c-4.8,13-8.3,26.5-10.4,39.9c-2.2,13.8-2.9,28-2.1,41.8
	c0.9,14.7,3.8,29.5,9,43.5c5.7,15.4,13.7,28.8,23.8,39.6c11.2,12,25,20.9,40.8,25.7c17.6,5.4,37.6,5.7,58.4-0.4
	c23-6.7,46.3-20.9,67.4-43.4c22.2-23.6,38.4-52.6,47.7-83.4c9.1-30.3,11-60.6,6.2-87.7c-4.4-25.3-14.3-46.7-28.5-62.9
	C307,102.3,291.1,92.5,273.1,87.8 M88,352.4c-5.4-18.2-8-36.7-8.5-54.8c-0.5-16.8,0.8-33.7,3.7-50c2.7-15.7,7-31.5,12.6-46.7
	c5.6-15.1,12.7-30.2,21.5-44.9c9-15.1,19.2-28.9,30.3-41.1c11.8-13,24.9-24.6,38.9-34.4c15.4-10.7,32.3-19.5,50.2-25.4
	c20.2-6.6,42.1-9.6,64.5-7.2c26.1,2.8,50.4,12.7,71.1,29.6c23.9,19.5,42.3,47.7,52.4,82.7c11.2,38.9,11.4,83.7-1.3,129.1
	c-13,46.5-38.1,89.2-73.7,122c-32.8,30.3-68.7,46.8-102.9,51.4c-29.9,4-57.6-1.1-81.1-12.7c-20.3-10.1-37.5-24.9-50.9-43.1
	C102.9,391.2,94,372.7,88,352.4"/>
<path fill="#F4F4F4" d="M247,125c-10.7-4.6-22-5.8-33.2-4.4c-10.3,1.3-20.6,4.8-30.3,10.1c-9.2,5-18,11.6-26,19.5
	c-7.7,7.6-14.9,16.5-21.3,26.7c-6.2,9.9-11.2,20.4-15,30.8c-3.8,10.5-6.5,21.4-8,32.1c-1.5,11-1.8,22.1-0.7,32.8
	c1.2,11.2,3.9,22.2,8.6,32.3c5,10.9,11.7,19.8,19.7,26.5c8.8,7.2,19.2,11.9,30.6,13.5c12.4,1.7,26-0.1,39.8-6.1
	c14.8-6.3,29.4-17.2,42.6-32.7c13.6-16,23.7-34.8,29.9-54.5c6.2-19.5,8.3-39.1,6.6-57.2c-1.6-17.2-6.6-32.5-14.6-44.7
	C268.5,138.5,258.7,130.1,247,125 M104.1,329.3c-5.2-14.1-8-28.8-9-43.5c-0.9-13.8-0.1-28,2.1-41.8c2.1-13.4,5.6-26.8,10.4-39.9
	c4.7-13,10.9-25.9,18.5-38.3c7.8-12.8,16.6-24.2,26.2-34.2c10-10.5,21.1-19.6,32.8-26.9c12.6-7.9,26.3-13.8,40.3-17.1
	c15.5-3.6,31.8-3.9,47.8,0.2c18,4.7,33.9,14.5,46.7,29c14.2,16.2,24.1,37.6,28.5,62.9c4.7,27.2,2.9,57.4-6.2,87.7
	c-9.3,30.8-25.4,59.7-47.7,83.4c-21.1,22.4-44.4,36.6-67.4,43.4c-20.8,6.1-40.8,5.8-58.4,0.4c-15.8-4.8-29.6-13.7-40.8-25.7
	C117.8,358.1,109.8,344.8,104.1,329.3"/>
<path fill="#EC2027" d="M222.7,159.9c-6.4-4-13.3-5.7-20.4-5.7c-6.7,0-13.6,1.7-20.3,4.8c-6.4,2.9-12.6,7.1-18.4,12.4
	c-5.6,5.1-10.9,11.3-15.5,18.5c-4.6,7.1-8.2,14.6-10.9,22.2c-2.7,7.6-4.5,15.4-5.4,23.1c-0.9,7.8-0.8,15.6,0.3,22.9
	c1.2,7.6,3.5,14.8,7.1,21.2c3.8,6.7,8.7,11.9,14.5,15.4c6,3.7,13,5.6,20.4,5.6c7.8-0.1,16.1-2.3,24.4-6.8c8.6-4.7,17-11.9,24.4-21.4
	c7.6-9.7,13.4-20.8,17.2-32.2c3.7-11.4,5.4-22.9,5.1-33.7c-0.3-10.5-2.6-20.1-6.5-28.2C234.7,170.2,229.4,164.1,222.7,159.9
	 M121.1,305c-4.6-10.1-7.4-21.1-8.6-32.3c-1.1-10.7-0.8-21.8,0.7-32.8c1.5-10.7,4.2-21.6,8-32.1c3.8-10.5,8.8-20.9,15-30.8
	c6.4-10.1,13.6-19.1,21.3-26.7c8.1-7.9,16.9-14.5,26-19.5c9.7-5.3,20-8.8,30.3-10.1c11.1-1.4,22.4-0.1,33.2,4.4
	c11.7,5,21.5,13.5,28.9,24.8c8,12.2,13,27.5,14.6,44.7c1.7,18.1-0.5,37.7-6.6,57.2c-6.2,19.7-16.3,38.5-29.9,54.5
	c-13.1,15.5-27.8,26.3-42.6,32.7c-13.8,5.9-27.4,7.8-39.8,6.1c-11.5-1.6-21.9-6.3-30.6-13.5C132.7,324.8,126.1,315.9,121.1,305"/>
<path fill="#F4F4F4" d="M199.8,192.5c-2.8-2.4-6-3.7-9.4-4.1c-3.3-0.4-6.7,0.1-10.2,1.3c-3.3,1.2-6.7,3.2-9.8,5.8
	c-3.1,2.6-6,5.8-8.6,9.6c-2.6,3.8-4.6,7.9-6,12c-1.5,4.1-2.4,8.4-2.7,12.5c-0.4,4.2-0.2,8.3,0.6,12c0.8,3.8,2.3,7.4,4.4,10.4
	c2.2,3.1,4.9,5.3,7.9,6.6c3.1,1.4,6.6,1.8,10.2,1.3c3.7-0.5,7.5-2,11.3-4.4c3.8-2.5,7.5-6,10.7-10.4c3.3-4.5,5.8-9.4,7.5-14.5
	c1.7-5.1,2.6-10.2,2.7-15.1c0.1-4.8-0.6-9.4-2.1-13.4C204.9,198.3,202.7,195,199.8,192.5 M139.1,279.3c-3.6-6.4-6-13.6-7.1-21.2
	c-1.1-7.3-1.2-15.1-0.3-22.9c0.9-7.7,2.7-15.5,5.4-23.1c2.7-7.6,6.4-15.1,10.9-22.2c4.7-7.2,9.9-13.4,15.5-18.5
	c5.8-5.3,12-9.5,18.4-12.4c6.7-3,13.5-4.7,20.3-4.8c7.1,0,14.1,1.7,20.4,5.7c6.7,4.2,12.1,10.4,15.9,18.1c4,8.1,6.2,17.7,6.5,28.2
	c0.3,10.8-1.3,22.3-5.1,33.7c-3.8,11.5-9.5,22.5-17.2,32.2c-7.5,9.5-15.9,16.7-24.4,21.4c-8.2,4.5-16.6,6.8-24.4,6.8
	c-7.4,0.1-14.4-1.9-20.4-5.6C147.8,291.2,142.9,286,139.1,279.3"/>
<path fill="#EC2027" d="M158.1,252.1c-2.1-3-3.6-6.5-4.4-10.4c-0.8-3.8-1-7.9-0.6-12c0.4-4.1,1.3-8.4,2.7-12.5c1.5-4.1,3.5-8.2,6-12
	c2.6-3.8,5.5-7.1,8.6-9.6c3.1-2.6,6.5-4.6,9.8-5.8c3.4-1.2,6.9-1.7,10.2-1.3c3.4,0.4,6.6,1.8,9.4,4.1c2.9,2.4,5.1,5.7,6.5,9.6
	c1.5,4,2.2,8.5,2.1,13.4c-0.1,4.9-1,10.1-2.7,15.1c-1.7,5.1-4.2,10-7.5,14.5c-3.3,4.4-6.9,7.9-10.7,10.4c-3.7,2.4-7.6,3.9-11.3,4.4
	c-3.6,0.5-7.1,0.1-10.2-1.3C163,257.3,160.3,255.1,158.1,252.1"/>
</svg>
